<svg width="16" height="17" viewBox="0 0 16 17" fill="none" xmlns="http://www.w3.org/2000/svg">
<g id="clock">
<path id="clock_2" d="M8.00004 1.33325C4.04804 1.33325 0.833374 4.54792 0.833374 8.49992C0.833374 12.4519 4.04804 15.6666 8.00004 15.6666C11.952 15.6666 15.1667 12.4519 15.1667 8.49992C15.1667 4.54792 11.952 1.33325 8.00004 1.33325ZM8.00004 14.6666C4.59937 14.6666 1.83337 11.9006 1.83337 8.49992C1.83337 5.09925 4.59937 2.33325 8.00004 2.33325C11.4007 2.33325 14.1667 5.09925 14.1667 8.49992C14.1667 11.9006 11.4007 14.6666 8.00004 14.6666ZM10.3534 10.1466C10.5487 10.3419 10.5487 10.6586 10.3534 10.8539C10.2561 10.9513 10.128 11.0006 10 11.0006C9.87204 11.0006 9.74402 10.9519 9.64669 10.8539L7.64669 8.85392C7.55269 8.75992 7.50004 8.63257 7.50004 8.50057V5.16724C7.50004 4.89124 7.72404 4.66724 8.00004 4.66724C8.27604 4.66724 8.50004 4.89124 8.50004 5.16724V8.29321L10.3534 10.1466Z" fill="#707070"/>
</g>
</svg>
