<svg width="25" height="24" viewBox="0 0 25 24" fill="none" xmlns="http://www.w3.org/2000/svg">
<g id="star">
<path id="star_2" d="M17.3541 21.75C17.0651 21.75 16.775 21.681 16.506 21.54L12.6181 19.505C12.5441 19.466 12.456 19.466 12.382 19.505L8.497 21.538C7.878 21.862 7.1421 21.808 6.5761 21.396C6.0131 20.985 5.73508 20.304 5.85308 19.617L6.59405 15.316C6.60805 15.235 6.581 15.153 6.523 15.096L3.28203 11.95C2.80103 11.483 2.63009 10.796 2.83709 10.157C3.04409 9.51798 3.58601 9.06099 4.25201 8.96399L8.73406 8.31598C8.81606 8.30398 8.88605 8.25299 8.92205 8.17999L10.865 4.26202C11.175 3.63702 11.8011 3.24902 12.4991 3.24902C13.1971 3.24902 13.8231 3.63702 14.1331 4.26202L16.075 8.17902C16.112 8.25302 16.1821 8.30398 16.2641 8.31598L20.746 8.96399C21.412 9.05999 21.9541 9.51698 22.1611 10.157C22.3681 10.796 22.197 11.483 21.716 11.95L18.476 15.095C18.416 15.153 18.3901 15.235 18.4041 15.316L19.1451 19.619C19.2631 20.305 18.987 20.986 18.423 21.396C18.105 21.631 17.7301 21.75 17.3541 21.75ZM12.5001 17.976C12.7791 17.976 13.059 18.042 13.313 18.175L17.2011 20.21C17.3561 20.292 17.482 20.229 17.542 20.185C17.602 20.142 17.697 20.043 17.668 19.875L16.9271 15.571C16.8291 15.001 17.019 14.421 17.434 14.019L20.673 10.875C20.77 10.781 20.754 10.675 20.736 10.621C20.718 10.566 20.668 10.47 20.533 10.45L16.0511 9.802C15.4801 9.72 14.9871 9.36201 14.7321 8.84601L12.7911 4.92999C12.7141 4.77399 12.576 4.75098 12.501 4.75098C12.426 4.75098 12.2881 4.77399 12.2111 4.92999L10.2691 8.84698C10.0151 9.36198 9.5221 9.72 8.9511 9.802L4.46905 10.45C4.33405 10.47 4.28304 10.565 4.26604 10.621C4.24804 10.676 4.23303 10.781 4.32903 10.875L7.56902 14.02C7.98302 14.421 8.173 15.001 8.075 15.571L7.33404 19.872C7.30504 20.041 7.40111 20.14 7.46111 20.184C7.52311 20.228 7.64501 20.29 7.80401 20.209L11.689 18.176C11.941 18.043 12.2211 17.976 12.5001 17.976Z" fill="#B0B0B0"/>
</g>
</svg>
