<svg width="25" height="24" viewBox="0 0 25 24" fill="none" xmlns="http://www.w3.org/2000/svg">
<g id="star">
<path id="Vector" d="M13.462 4.59601L15.404 8.513C15.55 8.808 15.832 9.01202 16.159 9.05902L20.6419 9.70697C21.4639 9.82597 21.792 10.834 21.197 11.412L17.956 14.557C17.719 14.787 17.611 15.118 17.667 15.443L18.4079 19.747C18.5579 20.62 17.6409 21.286 16.8549 20.875L12.967 18.84C12.675 18.687 12.327 18.687 12.036 18.84L8.15096 20.873C7.36396 21.285 6.44393 20.618 6.59493 19.743L7.33602 15.443C7.39202 15.118 7.28396 14.787 7.04696 14.557L3.80599 11.412C3.20999 10.834 3.53792 9.82597 4.36092 9.70697L8.84395 9.05902C9.16995 9.01202 9.45196 8.808 9.59896 8.513L11.541 4.59601C11.932 3.80101 13.068 3.80101 13.462 4.59601Z" fill="#FBB040"/>
</g>
</svg>
